<?xml version="1.0" encoding="UTF-8"?>
<svg id="Layer_2" data-name="Layer 2" xmlns="http://www.w3.org/2000/svg" xmlns:xlink="http://www.w3.org/1999/xlink" viewBox="0 0 120 164.03">
  <defs>
    <style>
      .cls-1, .cls-2 {
        fill: none;
      }

      .cls-2 {
        stroke: #afafaf;
        stroke-linecap: round;
        stroke-linejoin: round;
        stroke-width: .5px;
      }

      .cls-3 {
        fill: url(#linear-gradient);
        filter: url(#drop-shadow-1);
      }
    </style>
    <linearGradient id="linear-gradient" x1="42.2" y1="70.65" x2="77.79" y2="70.65" gradientUnits="userSpaceOnUse">
      <stop offset="0" stop-color="#fff9cc"/>
      <stop offset="1" stop-color="#fff9cc"/>
    </linearGradient>
    <filter id="drop-shadow-1" x="11.89" y="0" width="96" height="132" filterUnits="userSpaceOnUse">
      <feOffset dx="0" dy="-5"/>
      <feGaussianBlur result="blur" stdDeviation="10"/>
      <feFlood flood-color="#fff9cc" flood-opacity=".75"/>
      <feComposite in2="blur" operator="in"/>
      <feComposite in="SourceGraphic"/>
    </filter>
  </defs>
  <g id="Layer_2-2" data-name="Layer 2">
    <rect class="cls-1" y="24.03" width="120" height="140"/>
    <g>
      <g>
        <path id="path18-7" class="cls-2" d="M64.17,158.99l-1.8,2.2h-4.73l-1.8-2.2h8.33"/>
        <path id="path20-6" class="cls-2" d="M64.17,158.99l-1.8,2.2h-4.73l-1.8-2.2h8.33,0Z"/>
        <path id="path22-6" class="cls-2" d="M66.96,141.62v4.44l-.44,1.46.44,1.35-.44,1.47.44,1.24-.44,1.57.44,1.24-.44,1.58v1.35l-1.36,1.68h-10.33l-1.36-1.68v-1.35l-.45-1.58.45-1.24-.45-1.57.45-1.24-.45-1.47.45-1.35-.45-1.46v-4.44h13.94"/>
        <path id="path24-6" class="cls-2" d="M66.96,141.62v4.44l-.44,1.46.44,1.35-.44,1.47.44,1.24-.44,1.57.44,1.24-.44,1.58v1.35l-1.36,1.68h-10.33l-1.36-1.68v-1.35l-.45-1.58.45-1.24-.45-1.57.45-1.24-.45-1.47.45-1.35-.45-1.46v-4.44h13.94Z"/>
        <path id="path26-7" class="cls-2" d="M66.52,153.14l-13.5,1.24"/>
        <path id="path28-7" class="cls-2" d="M66.52,150.34l-13.5,1.24"/>
        <path id="path30-7" class="cls-2" d="M66.52,155.96l-10.28.81"/>
        <path id="path32-7" class="cls-2" d="M63.46,147.79l-10.43,1.08"/>
        <path id="path34-6" class="cls-2" d="M69.31,141.62h-18.61v-6.85h18.61v6.85"/>
        <path id="path36-6" class="cls-2" d="M69.31,141.62h-18.61v-6.85h18.61v6.85Z"/>
        <path id="path38-4" class="cls-2" d="M78.06,106.28h-36.1"/>
        <path id="path40-4" class="cls-2" d="M78.06,106.28h-36.1"/>
        <path class="cls-2" d="M49.81,72.48c1.13-3.5,10.17-20.16,8-27.3l-1.09-5.04c-1.11-.34-1.92-1.36-1.92-2.58,0-1.5,1.21-2.71,2.71-2.71s2.71,1.21,2.71,2.71c0,.42-.1.81-.27,1.17.7,1.27,1.61,2.9,1.61,2.9,0,0,3.27,6.95,3.3,11.95.04,6.03,3.15,14.5,4.86,18.05,4.41,9.03,8.32,22.01,8.32,34.67,0,14.03-5.61,26.22-9.44,28.49h-17.22c-3.83-2.27-9.44-14.46-9.44-28.49,0-12.23,3.65-24.81,7.87-33.81h0Z"/>
      </g>
      <path class="cls-3" d="M50.04,72.68s.02-.04.02-.07c.25-.77.9-2.2,1.71-4,2.99-6.65,8-17.78,6.29-23.4l-1.09-5.04c-.02-.09-.08-.16-.17-.19-1.04-.32-1.74-1.26-1.74-2.34,0-1.36,1.1-2.46,2.46-2.46s2.46,1.1,2.46,2.46c0,.36-.08.72-.25,1.06-.03.07-.03.16,0,.23.7,1.26,1.6,2.89,1.6,2.89.04.08,3.25,6.96,3.28,11.85.04,5.92,3.02,14.28,4.88,18.16,5.15,10.55,8.24,23.34,8.29,34.29h-35.59c.05-10.57,2.97-23.04,7.84-33.43Z"/>
    </g>
  </g>
</svg>