<?xml version="1.0" encoding="UTF-8"?>
<svg id="Layer_2" data-name="Layer 2" xmlns="http://www.w3.org/2000/svg" viewBox="0 0 120 140">
  <defs>
    <style>
      .cls-1, .cls-2 {
        fill: none;
      }

      .cls-2 {
        stroke: #afafaf;
        stroke-linecap: round;
        stroke-linejoin: round;
        stroke-width: .5px;
      }
    </style>
  </defs>
  <g id="Layer_2-2" data-name="Layer 2">
    <g>
      <path id="path14-2" class="cls-2" d="M69.57,107.8c4.26-2.52,10.49-16.07,10.49-31.65,0-25.25-13.99-51.86-20.06-51.75-6.07.11-20.06,26.5-20.06,51.75,0,15.59,6.23,29.13,10.49,31.65h19.13"/>
      <path id="path16-2" class="cls-2" d="M69.57,107.8c4.26-2.52,10.49-16.07,10.49-31.65,0-25.25-13.99-51.86-20.06-51.75-6.07.11-20.06,26.5-20.06,51.75,0,15.59,6.23,29.13,10.49,31.65h19.14Z"/>
      <path id="path18-2" class="cls-2" d="M64.62,134.72l-2,2.45h-5.26l-2-2.45h9.26"/>
      <path id="path20" class="cls-2" d="M64.62,134.72l-2,2.45h-5.26l-2-2.45h9.26Z"/>
      <path id="path22-2" class="cls-2" d="M67.74,115.41v4.93l-.49,1.62.49,1.5-.49,1.63.49,1.37-.49,1.74.49,1.37-.49,1.76v1.5l-1.51,1.87h-11.48l-1.51-1.87v-1.5l-.5-1.76.5-1.37-.5-1.74.5-1.37-.5-1.63.5-1.5-.5-1.62v-4.93h15.49"/>
      <path id="path24-2" class="cls-2" d="M67.74,115.41v4.93l-.49,1.62.49,1.5-.49,1.63.49,1.37-.49,1.74.49,1.37-.49,1.76v1.5l-1.51,1.87h-11.48l-1.51-1.87v-1.5l-.5-1.76.5-1.37-.5-1.74.5-1.37-.5-1.63.5-1.5-.5-1.62v-4.93h15.49Z"/>
      <path id="path26-2" class="cls-2" d="M67.26,128.22l-15,1.37"/>
      <path id="path28-2" class="cls-2" d="M67.26,125.11l-15,1.37"/>
      <path id="path30-2" class="cls-2" d="M67.26,131.35l-11.42.9"/>
      <path id="path32-2" class="cls-2" d="M63.85,122.27l-11.59,1.2"/>
      <path id="path34-2" class="cls-2" d="M70.35,115.41h-20.68v-7.61h20.68v7.61"/>
      <path id="path36-2" class="cls-2" d="M70.35,115.41h-20.68v-7.61h20.68v7.61Z"/>
      <path id="path38" class="cls-2" d="M80.07,76.15h-40.11"/>
      <path id="path40" class="cls-2" d="M80.07,76.15h-40.11"/>
    </g>
    <rect class="cls-1" width="120" height="140"/>
  </g>
</svg>