<?xml version="1.0" encoding="UTF-8"?>
<svg id="_Слой_2" data-name="Слой 2" xmlns="http://www.w3.org/2000/svg" viewBox="0 0 509.47 77.91">
  <defs>
    <style>
      .cls-1 {
        fill: #231f20;
        stroke-width: 0px;
      }
    </style>
  </defs>
  <g id="Layer_1" data-name="Layer 1">
    <g>
      <rect class="cls-1" x="181.01" y="42.53" width="20.44" height="5.56" transform="translate(382.47 90.63) rotate(180)"/>
      <path class="cls-1" d="m506.27,27.62h-37.25c-1.77,0-3.2,1.43-3.2,3.2s1.43,3.2,3.2,3.2h15.43v19.57c0,1.77,1.43,3.2,3.2,3.2s3.2-1.43,3.2-3.2v-19.57h15.43c1.77,0,3.2-1.43,3.2-3.2s-1.43-3.2-3.2-3.2Z"/>
      <path class="cls-1" d="m357.52,50.42v-.03h-28.42c-4.52,0-8.18-3.66-8.18-8.18h0c0-4.52,3.66-8.18,8.18-8.18h28.42v-.02c1.67-.1,3-1.48,3-3.18s-1.33-3.07-3-3.18h0s-.04,0-.04,0c-.05,0-.11-.02-.16-.02h-13.08v.02h-14.59c-8.05,0-14.57,6.52-14.57,14.57h0c0,8.05,6.52,14.57,14.57,14.57h14.59v.02h13.08c.06,0,.11-.01.17-.02h.03c1.67-.11,3-1.48,3-3.18s-1.33-3.07-3-3.18Z"/>
      <path class="cls-1" d="m210.46,52.05l-13.71-21.31c-2.78-4.32-9.09-4.32-11.87,0l-13.71,21.31c-.95,1.49-.5,3.47.99,4.41s3.47.5,4.41-.99l13.04-20.23c.56-.87,1.83-.87,2.39,0l13.04,20.23c.95,1.49,2.92,1.93,4.41.99,1.49-.95,1.93-2.92.99-4.41Z"/>
      <path class="cls-1" d="m257.09,27.63c-1.77,0-3.2,1.43-3.2,3.2v8.21h-30.95v-8.21c0-1.77-1.43-3.2-3.2-3.2s-3.2,1.43-3.2,3.2v22.81c0,1.77,1.43,3.2,3.2,3.2s3.2-1.43,3.2-3.2v-8.21h30.95v8.21c0,1.77,1.43,3.2,3.2,3.2s3.2-1.43,3.2-3.2v-22.81c0-1.77-1.43-3.2-3.2-3.2Z"/>
      <path class="cls-1" d="m162.67,27.63c-1.77,0-3.2,1.43-3.2,3.2v8.21h-30.95v-8.21c0-1.77-1.43-3.2-3.2-3.2s-3.2,1.43-3.2,3.2v22.81c0,1.77,1.43,3.2,3.2,3.2s3.2-1.43,3.2-3.2v-8.21h30.95v8.21c0,1.77,1.43,3.2,3.2,3.2s3.2-1.43,3.2-3.2v-22.81c0-1.77-1.43-3.2-3.2-3.2Z"/>
      <path class="cls-1" d="m296.34,27.64h-16.22c-8.05,0-14.57,6.52-14.57,14.57h0c0,8.05,6.52,14.57,14.57,14.57h16.22c8.05,0,14.57-6.52,14.57-14.57h0c0-8.05-6.52-14.57-14.57-14.57Zm8.73,14.57c0,4.52-3.66,8.18-8.18,8.18h-11.26s-6.05,0-6.05,0c-4.52,0-8.18-3.66-8.18-8.18h0c0-4.52,3.66-8.18,8.18-8.18h11.26s6.05,0,6.05,0c4.52,0,8.18,3.66,8.18,8.18h0Z"/>
      <path class="cls-1" d="m408.02,42.27c.53-.75.94-1.61,1.27-2.57.29-.97.46-2,.46-3.12,0-1.25-.19-2.42-.6-3.51-.38-1.09-.92-2.04-1.61-2.83-.69-.81-1.48-1.44-2.41-1.92-.91-.47-1.87-.7-2.92-.7h-33.36s0,0,0,0h-.13c-1.41,0-2.55,1.14-2.55,2.55v4.65h0v18.75s0,.04,0,.06v.6c0,1.41,1.14,2.55,2.55,2.55h.11s0,0,.01,0h33.36c1.04,0,2.01-.24,2.92-.7.92-.46,1.72-1.1,2.41-1.9.69-.8,1.22-1.74,1.61-2.8.41-1.07.6-2.23.6-3.49,0-1.06-.17-2.08-.46-3.04-.33-.97-.75-1.82-1.27-2.58Zm-4.09,5.43c0,1.5-1.22,2.72-2.72,2.72h-29.15v-5.65h29.15c1.5,0,2.72,1.22,2.72,2.72v.21Zm0-10.75c0,1.5-1.22,2.72-2.72,2.72h-29.15v-5.65h29.15c1.5,0,2.72,1.22,2.72,2.72v.21Z"/>
    </g>
    <g>
      <path class="cls-1" d="m16.27,33.46c.53-1.12.86-2.34.86-3.67s-.33-2.56-.86-3.68v-4.03h-4.03c-1.12-.54-2.36-.86-3.68-.86s-2.56.33-3.67.86H.85v4.03c-.52,1.12-.85,2.35-.85,3.68s.33,2.55.85,3.67v4.04h4.04c1.11.53,2.36.86,3.67.86s2.56-.32,3.68-.86h4.03v-4.04Z"/>
      <path class="cls-1" d="m35.82,75.25c0,1.47,1.2,2.66,2.67,2.66s2.67-1.19,2.67-2.66-1.19-2.67-2.67-2.67-2.67,1.19-2.67,2.67Z"/>
      <path class="cls-1" d="m4.44,54.38c0,4.09,3.31,7.4,7.4,7.4s7.4-3.32,7.4-7.4-3.31-7.41-7.4-7.41-7.4,3.32-7.4,7.41Z"/>
      <path class="cls-1" d="m20.13,69.62c0-2.78,2.25-5.03,5.04-5.03s5.02,2.25,5.02,5.03-2.25,5.04-5.02,5.04-5.04-2.25-5.04-5.04Z"/>
      <path class="cls-1" d="m38.43,15.04c0,1.49-1.21,2.69-2.69,2.69h-12.35c-1.48,0-2.68-1.2-2.68-2.69V2.68c0-1.48,1.2-2.68,2.68-2.68h12.35c1.48,0,2.69,1.2,2.69,2.68v12.36Z"/>
      <path class="cls-1" d="m68.02,20.7h-22.09c-5.83,0-10.56,4.73-10.56,10.56v22.09c0,5.83,4.73,10.56,10.56,10.56h22.09c5.83,0,10.56-4.73,10.56-10.56v-22.09c0-5.83-4.73-10.56-10.56-10.56Zm3.58,20.29v10.24c0,1.38-1.12,2.5-2.5,2.5s-2.5-1.12-2.5-2.5v-6.43h-19.23v6.43c0,1.38-1.12,2.5-2.5,2.5s-2.5-1.12-2.5-2.5v-17.86c0-1.38,1.12-2.5,2.5-2.5s2.5,1.12,2.5,2.5v6.43h19.23v-6.43c0-1.38,1.12-2.5,2.5-2.5s2.5,1.12,2.5,2.5v7.62Z"/>
    </g>
    <path class="cls-1" d="m456.94,34.05c1.77,0,3.2-1.43,3.2-3.2v-.02c0-1.77-1.43-3.2-3.2-3.2h-4.66s-31.27,0-31.27,0h-3.16c-1.41,0-2.55,1.14-2.55,2.55v24.07c0,1.41,1.15,2.55,2.55,2.55h39.09c1.77,0,3.2-1.43,3.2-3.2v-.02c0-1.77-1.43-3.2-3.2-3.2h-4.66s-28.84,0-28.84,0c0,0,0,0-.01,0h-1.71v-4.64h0v-.81h20.36s9.65,0,9.65,0c1.45,0,2.63-1.18,2.63-2.63h0c0-1.47-1.18-2.64-2.63-2.64h-3.45s-26.67,0-26.67,0h0s0,0,0,0v-5.6h.07s22.17,0,22.17,0h0s13.08,0,13.08,0Z"/>
  </g>
</svg>