<?xml version="1.0" encoding="UTF-8"?>
<svg id="_Слой_2" data-name="Слой 2" xmlns="http://www.w3.org/2000/svg" viewBox="0 0 112 56">
  <defs>
    <style>
      .cls-1 {
        fill: #d60000;
        fill-rule: evenodd;
        stroke-width: 0px;
      }
    </style>
  </defs>
  <g id="Layer_1" data-name="Layer 1">
    <path class="cls-1" d="m12.53,56h86.94c6.92,0,12.53-5.61,12.53-12.53V12.53c0-6.92-5.61-12.53-12.53-12.53H12.53C5.61,0,0,5.61,0,12.53v30.94c0,6.92,5.61,12.53,12.53,12.53Zm73.66-12.6v-6.51h1.83v2.31h1.43c.57,0,1.29.16,1.74.66.29.3.5.75.5,1.4,0,.86-.38,1.38-.69,1.65-.48.42-1.02.48-1.46.48h-3.35Zm-73.66,0v-6.51h1.83v4.01l3.01-4.01h1.83v6.51h-1.83v-4.01l-3.01,4.01h-1.84Zm10.14,0h-1.83v-6.51h1.83v2.3h2.56v-2.3h1.83v6.51h-1.83v-2.65h-2.56v2.65h0Zm8.93-6.72c.68,0,1.23.14,1.76.39h0v1.8c-.39-.36-.87-.57-1.5-.57-1.22,0-1.83.89-1.83,1.83,0,1.07.8,1.85,1.89,1.85.4,0,.95-.12,1.44-.57v1.79c-.36.18-.93.4-1.68.4-1.02,0-1.92-.39-2.51-.95-.5-.47-1.04-1.28-1.04-2.49,0-1.14.47-2.06,1.13-2.65.8-.71,1.71-.84,2.34-.84h0Zm8.15.21v1.56h-1.81v4.95h-1.83v-4.94h-1.8v-1.56h5.44Zm4.88,6.72c-.45,0-1.37-.08-2.09-1.05v4.28h-1.83v-9.95h1.83v.84c.29-.41.92-1.05,2.12-1.05.57,0,1.49.14,2.22.87.48.48.98,1.29.98,2.58,0,1.47-.65,2.27-1.02,2.63-.5.46-1.25.84-2.21.84Zm.78-4.84c-.33-.3-.81-.47-1.25-.47-.48,0-.86.13-1.19.44-.41.35-.62.8-.62,1.4s.24,1.1.6,1.41c.24.21.63.44,1.2.44.6,0,.99-.24,1.23-.47.39-.36.57-.9.57-1.38s-.19-1.02-.55-1.37Zm5.11,8.07h-2.07l2.39-4.42-3.1-5.53h2.13l2.01,3.7,1.8-3.7h2.07l-5.24,9.95h0Zm6.72-3.44h-1.83l1.19-6.51h1.35l1.79,3.74,1.79-3.74h1.35l1.19,6.51h-1.83l-.54-3.53-1.62,3.53h-.66l-1.62-3.53-.54,3.53Zm10.95-1.23c.69,0,1.22-.33,1.52-.86l1.68.27c-.19.48-.93,2.03-3.2,2.03-1.05,0-1.85-.3-2.5-.92-.72-.68-1.02-1.52-1.02-2.54,0-1.29.53-2.09.99-2.56.77-.75,1.67-.92,2.45-.92,1.32,0,2.09.53,2.54,1.07.69.83.78,1.85.78,2.55v.15h-4.87c0,.39.11.81.32,1.1.19.27.6.62,1.31.62h0Zm-.03-4.19c-.68,0-1.38.44-1.53,1.31h3.08c-.15-.89-.87-1.31-1.55-1.31Zm6.29,5.43h-1.83v-6.51h1.83v2.3h2.56v-2.3h1.83v6.51h-1.83v-2.65h-2.56v2.65Zm10.79-6.51v1.56h-1.8v4.94h-1.83v-4.94h-1.8v-1.56h5.44Zm2.79,3.76v1.31h.86c.2,0,.48-.01.68-.16.12-.09.24-.27.24-.53,0-.24-.12-.39-.24-.47-.2-.13-.47-.15-.63-.15,0,0-.9,0-.9,0Zm4.36,2.75v-6.51h1.83v6.51h-1.83,0Zm.82-12.38c3.46.04,6.3-2.73,6.34-6.18s-2.73-6.3-6.18-6.34c-.05,0-.11,0-.16,0-3.46.04-6.23,2.88-6.18,6.34.04,3.4,2.79,6.14,6.18,6.18h0Zm1-2.79h1.17l2.96-5.62h-1.17l-1.02,2.09-1.14-2.09h-1.21l1.75,3.12-1.35,2.5Zm-6.33-2.5c0,.37.29.66.66.66.36,0,.66-.28.66-.64,0,0,0-.01,0-.02,0-.36-.28-.66-.64-.66,0,0-.01,0-.02,0-.36,0-.66.28-.66.64,0,0,0,.01,0,.02h0Zm3.06.08h0v2.42h-1.04v-5.62h1.04v.48c.16-.23.52-.59,1.2-.59.32,0,.84.08,1.25.49.27.27.55.73.55,1.46,0,.83-.36,1.28-.58,1.48-.28.26-.7.48-1.25.48-.25,0-.77-.04-1.18-.59h0s0,0,0,0Zm.92-2.4c.25,0,.52.09.71.26.2.19.31.5.31.77s-.1.58-.32.78c-.19.18-.44.27-.7.26-.32,0-.54-.13-.68-.25-.22-.2-.35-.5-.34-.8,0-.34.12-.59.35-.79.18-.17.42-.26.67-.25h0Zm-56.29-.96v-3.25c-.95-.46-1.95-.7-3.17-.7-1.14,0-2.79.24-4.23,1.52-1.19,1.06-2.03,2.71-2.03,4.77,0,2.19.98,3.66,1.87,4.5,1.06,1,2.68,1.71,4.53,1.71,1.06,0,2.09-.25,3.03-.73v-3.23c-.9.81-1.87,1.03-2.6,1.03-1.98,0-3.42-1.41-3.42-3.33,0-1.71,1.11-3.31,3.31-3.31,1.14,0,2.01.38,2.71,1.03Zm-12.38,6.69c1.25-1.11,1.55-2.6,1.55-3.66,0-.95-.22-2.36-1.3-3.39-.46-.43-1.16-.95-2.36-1.14.49-.27,2.03-1.22,2.03-3.55,0-1.52-.62-2.93-1.68-3.74-1.46-1.14-3.42-1.14-4.42-1.14h-4.47v18.08h6.07c1.57,0,3.22-.27,4.58-1.46h0Zm-6.12-9.1h-1v-4.63h1.03c1.44,0,2.71.62,2.71,2.28,0,2.3-2.2,2.36-2.74,2.36Zm2.71,3.06c1.14.51,1.33,1.49,1.33,2.06,0,.7-.24,1.57-1.11,2.09-.78.46-1.76.49-2.41.49h-1.52v-4.99h1.3c.76,0,1.65,0,2.41.35Zm20.9,2.19h8.78v-.27c0-1.27-.16-3.12-1.41-4.61-.81-.98-2.19-1.92-4.58-1.92-1.41,0-3.03.3-4.42,1.65-.84.84-1.79,2.28-1.79,4.61,0,1.84.54,3.36,1.84,4.58,1.16,1.11,2.6,1.65,4.5,1.65,4.09,0,5.42-2.79,5.77-3.66l-3.03-.49c-.54.95-1.49,1.55-2.74,1.55s-2.01-.62-2.36-1.11c-.38-.52-.57-1.27-.57-1.98Zm2.87-4.47c1.22,0,2.52.76,2.79,2.36h-5.55c.27-1.57,1.54-2.36,2.76-2.36Z"/>
  </g>
</svg>