<?xml version="1.0" encoding="UTF-8"?>
<svg id="_Слой_2" data-name="Слой 2" xmlns="http://www.w3.org/2000/svg" viewBox="0 0 114 56.52">
  <defs>
    <style>
      .cls-1 {
        fill: #001a34;
      }

      .cls-1, .cls-2 {
        stroke-width: 0px;
      }

      .cls-2 {
        fill: #6bb431;
      }
    </style>
  </defs>
  <g id="Layer_1" data-name="Layer 1">
    <path class="cls-2" d="m0,48.58h113.99v-2.4h-61.07v-24.05h13.5l-.5-1.31h-28.18l-.5,1.31h13.81v24.05H0v2.4ZM46.52,3.39h-2.19l-6.35,16.78h3.14l5.41-16.78Zm-1.2,16.78h20.35l-6.35-16.78h-11.56l-2.44,16.78ZM59.07,2.75l-.64-1.7h-6.07c-.01-.65-.03-1.05-.03-1.05h-.98s-.01.4-.01,1.05h-6.12l-.64,1.7h14.5Z"/>
    <path class="cls-1" d="m11.17,38.73c0-1.61-1.08-2.41-3.26-2.41H3.18v4.87h4.72c2.18,0,3.26-.82,3.26-2.46Zm-7.99-4.66h4.12c.99,0,1.75-.2,2.27-.59s.78-.98.78-1.75-.26-1.36-.78-1.76c-.52-.41-1.27-.61-2.27-.61H3.18v4.71Zm10.26,2.33c.55.69.83,1.54.83,2.57,0,1.46-.54,2.58-1.61,3.38-1.07.8-2.62,1.21-4.65,1.21H.15v-16.58h7.39c1.85,0,3.31.37,4.35,1.11,1.04.75,1.56,1.8,1.56,3.15,0,.86-.21,1.62-.63,2.25-.42.63-1.01,1.11-1.81,1.45,1.06.29,1.87.78,2.43,1.47Zm10.26,4.66c.57-.34.98-.83,1.21-1.46v-1.47h-3.04c-1.7,0-2.55.56-2.55,1.68,0,.54.21.97.64,1.28.42.31,1.01.48,1.77.48.73-.01,1.4-.17,1.97-.51Zm2.69-8.95c.98.9,1.48,2.24,1.48,4.03v7.42h-2.79v-1.54c-.36.55-.87.98-1.55,1.27-.66.29-1.48.44-2.43.44s-1.77-.16-2.48-.49c-.71-.33-1.26-.77-1.64-1.35-.38-.57-.58-1.22-.58-1.96,0-1.13.42-2.05,1.27-2.74.84-.69,2.17-1.03,3.99-1.03h3.26v-.19c0-.89-.27-1.56-.79-2.04-.52-.48-1.32-.71-2.36-.71-.71,0-1.41.1-2.09.33-.69.22-1.26.52-1.74.92l-1.15-2.16c.66-.5,1.46-.89,2.39-1.17.93-.27,1.91-.41,2.95-.41,1.85.02,3.28.47,4.26,1.36Zm17.55,11.45v-8.38l-4.26,7.05h-1.27l-4.19-7.08v8.41h-2.69v-12.65h3.1l4.49,7.92,4.7-7.91h2.76l.02,12.65h-2.67Zm17.21-.86c-1.35-.73-2.4-1.75-3.17-3.04-.77-1.29-1.14-2.75-1.14-4.38s.38-3.09,1.15-4.38c.77-1.29,1.83-2.31,3.18-3.04,1.35-.73,2.86-1.1,4.52-1.1,1.35,0,2.59.23,3.71.71,1.12.48,2.06,1.17,2.83,2.06l-1.98,1.88c-1.2-1.29-2.67-1.95-4.42-1.95-1.13,0-2.15.24-3.04.75-.9.5-1.6,1.19-2.1,2.08-.5.89-.76,1.89-.76,3.01s.26,2.12.76,3.01c.5.89,1.2,1.57,2.1,2.08.9.5,1.91.75,3.04.75,1.75,0,3.22-.65,4.42-1.97l1.98,1.9c-.77.9-1.73,1.59-2.85,2.06-1.13.48-2.37.71-3.72.71-1.67-.02-3.18-.38-4.52-1.12Zm22.25-2.88c0-.55-.19-.97-.57-1.25-.38-.28-.97-.42-1.77-.42h-3.47v3.24h3.38c1.62.01,2.44-.51,2.44-1.57Zm-5.82-3.63h3.1c1.53,0,2.3-.52,2.3-1.59s-.77-1.54-2.3-1.54h-3.1v3.12Zm8.68,3.81c0,1.13-.42,2.02-1.27,2.62-.85.62-2.11.92-3.78.92h-6.42v-12.64h6.17c1.54,0,2.75.28,3.61.85.86.57,1.31,1.38,1.31,2.41,0,.65-.17,1.21-.51,1.68-.34.48-.82.84-1.43,1.11,1.55.49,2.33,1.5,2.33,3.04Zm6.18-6.03c-.65.56-1.05,1.31-1.19,2.24h7.16c-.13-.92-.51-1.66-1.15-2.23-.64-.57-1.45-.85-2.41-.85s-1.75.28-2.4.84Zm8.73,4.21h-9.9c.17.93.63,1.67,1.35,2.22.73.55,1.64.82,2.73.82,1.39,0,2.53-.45,3.43-1.38l1.59,1.82c-.57.68-1.28,1.19-2.15,1.54s-1.84.52-2.93.52c-1.39,0-2.61-.28-3.66-.83-1.06-.55-1.88-1.32-2.45-2.31-.57-.99-.86-2.1-.86-3.35s.28-2.34.84-3.32c.56-.99,1.34-1.76,2.33-2.31.99-.55,2.11-.83,3.36-.83s2.33.27,3.3.82c.97.55,1.73,1.31,2.27,2.3.55.99.82,2.12.82,3.43-.02.19-.04.48-.07.86Zm12.81-4.76h-4.42v10.13h-2.95v-10.13h-4.44v-2.51h11.81v2.51Z"/>
    <path class="cls-1" d="m3.22,52.25H.69v4.22s-.69,0-.69,0v-4.82h3.22v.59Zm2.73-.61h.7v3.72l2.9-3.72h.64v4.82h-.69v-3.71l-2.91,3.71h-.64v-4.82Zm11.9,0v4.82h-.69v-4.22h-2.86v4.22h-.7v-4.82h4.24Zm7,4.22v.59h-3.57v-4.82h3.47v.59h-2.76v1.48h2.45v.58h-2.46v1.55h2.87Zm5.9-1.74c.23-.19.35-.45.35-.8s-.12-.62-.35-.8c-.23-.19-.57-.28-1.01-.28h-1.19v2.16h1.19c.44.01.78-.08,1.01-.27Zm.51-2.03c.36.3.55.71.55,1.24s-.19.93-.55,1.24c-.36.3-.86.44-1.5.44h-1.21v1.46h-.7v-4.82h1.91c.63-.01,1.13.14,1.5.44Zm8.03,4.37v-3.51s-1.78,2.93-1.78,2.93h-.33l-1.77-2.9v3.49h-.68v-4.82h.57l2.05,3.39,2.03-3.39h.57v4.82s-.66,0-.66,0Zm7.05-1.76l-1.06-2.37-1.06,2.37h2.12Zm.24.55h-2.61l-.54,1.2h-.72l2.23-4.82h.7l2.24,4.82h-.73l-.56-1.2Zm6.93-1.13c.23-.19.35-.45.35-.8s-.12-.62-.35-.8c-.23-.19-.57-.28-1.01-.28h-1.19v2.16h1.19c.44.01.78-.08,1.01-.27Zm.51-2.03c.36.3.55.71.55,1.24s-.19.93-.55,1.24c-.36.3-.86.44-1.5.44h-1.21v1.46h-.7v-4.82h1.91c.64-.01,1.14.14,1.5.44Zm5.2,2.25h-1.03v2.12h-.69v-4.82h.69v2.09h1.04l1.55-2.09h.75l-1.76,2.33,1.84,2.48h-.8l-1.59-2.12Zm8.73,1.52v.59h-3.57v-4.82h3.47v.59h-2.76v1.48h2.47v.58h-2.47v1.55h2.86Zm6.38-3.61h-1.69v4.22h-.69v-4.22h-1.68v-.59h4.06v.59Zm9.28,3.95c-.4-.21-.71-.51-.93-.89-.22-.37-.34-.79-.34-1.26s.12-.89.34-1.26c.22-.37.54-.66.93-.89.4-.21.84-.31,1.33-.31.38,0,.73.06,1.05.19.31.13.59.31.82.56l-.45.43c-.37-.38-.83-.57-1.39-.57-.36,0-.7.08-.99.24-.29.16-.52.38-.69.66-.16.28-.24.59-.24.94s.08.66.24.94c.16.28.4.5.69.66.29.16.63.24.99.24.55,0,1.01-.2,1.39-.58l.45.43c-.22.24-.5.43-.82.56-.31.13-.68.2-1.06.2-.48,0-.92-.1-1.32-.31Zm9.43-1.11c0-.28-.09-.48-.28-.61-.19-.13-.47-.2-.85-.2h-1.54v1.63h1.54c.75,0,1.13-.28,1.13-.83Zm-2.67-1.33h1.38c.34,0,.61-.07.78-.2.17-.13.27-.33.27-.58s-.09-.45-.27-.59c-.19-.14-.44-.2-.78-.2h-1.38v1.57Zm3.11.62c.17.2.26.45.26.77,0,.42-.15.75-.47.97-.31.23-.77.35-1.36.35h-2.25v-4.82h2.11c.54,0,.96.1,1.26.31.3.21.45.52.45.92,0,.26-.07.49-.2.66-.13.19-.33.33-.57.41.35.08.61.22.77.42Zm6.89,1.48v.59h-3.57v-4.82h3.47v.59h-2.76v1.48h2.46v.58h-2.46v1.55h2.86Zm6.38-3.61h-1.69v4.22h-.69v-4.22h-1.68v-.59h4.06v.59Zm5.69,2.46l-1.06-2.37-1.06,2.37h2.12Zm.25.55h-2.61l-.54,1.2h-.72l2.23-4.82h.7l2.24,4.82h-.74l-.56-1.2Z"/>
  </g>
</svg>