<?xml version="1.0" encoding="UTF-8"?>
<svg id="_Слой_2" data-name="Слой 2" xmlns="http://www.w3.org/2000/svg" viewBox="0 0 288 70.05">
  <defs>
    <style>
      .cls-1 {
        fill: #e30613;
      }

      .cls-1, .cls-2 {
        stroke-width: 0px;
      }

      .cls-2 {
        fill: #646363;
      }
    </style>
  </defs>
  <g id="Layer_1" data-name="Layer 1">
    <path class="cls-1" d="m31.48,53.49c-1.57.24-3.48.44-5.71.59-2.24.15-4.76.22-7.56.22-4.23,0-7.55-.26-9.95-.78-2.41-.51-4.23-1.47-5.46-2.87-1.23-1.4-2-3.34-2.32-5.81-.32-2.48-.48-5.65-.48-9.53s.21-7.31.63-9.86c.42-2.55,1.25-4.54,2.51-5.96,1.25-1.42,3.06-2.4,5.42-2.94,2.36-.54,5.5-.81,9.44-.81,2.8,0,5.28.09,7.45.26,2.16.17,4.03.36,5.6.55,1.82.2,3.42.44,4.79.74v6.11c-1.82-.15-3.64-.27-5.45-.37-1.71-.1-3.42-.18-5.13-.22-1.71-.05-3.42-.02-5.12.08-1.72.05-3.09.15-4.09.29-1.01.15-1.76.61-2.25,1.4-.49.79-.8,2.02-.92,3.72-.12,1.69-.19,4.11-.19,7.25,0,2.85.05,5.04.15,6.59.1,1.54.38,2.67.85,3.38.47.71,1.22,1.14,2.25,1.29,1.03.15,2.48.25,4.35.3,1.67.1,3.45.12,5.35.07,1.89-.05,3.62-.12,5.2-.22,1.87-.1,3.71-.22,5.53-.37v6.11c-1.42.34-3.05.61-4.87.81Zm38.27-.15v-24.5c0-1.52-.14-2.7-.4-3.53-.27-.83-.7-1.43-1.29-1.8-.59-.37-1.34-.59-2.25-.66-.91-.08-2-.11-3.28-.11-1.13,0-2.14.02-3.02.07-.88.05-1.65.1-2.28.15-.64.04-1.28.09-1.92.15v30.24h-12.31V0h12.31v16.12c.64-.06,1.28-.1,1.92-.15.64-.05,1.4-.1,2.28-.15,1.01-.05,2.01-.08,3.02-.07,3.29,0,6.17.11,8.63.33,2.46.22,4.5.77,6.12,1.66,1.62.88,2.82,2.2,3.61,3.94.78,1.74,1.18,4.14,1.18,7.17v24.5h-12.31s0,0,0,0h0Zm20.94-42.97V0h12.31v10.38h-12.31Zm0,42.97V16.63h12.31v36.72s-12.31,0-12.31,0Zm60.83-18.03c0,4.12-.18,7.42-.55,9.9-.37,2.48-1.23,4.39-2.58,5.74-1.35,1.35-3.35,2.24-6.01,2.69-2.65.44-6.27.66-10.84.66-2.36,0-4.2-.07-5.53-.22-.69-.04-1.38-.11-2.07-.22v16.19h-12.31V17.29c1.52-.3,3.29-.54,5.31-.74,2.08-.23,4.17-.41,6.27-.55,2.46-.17,5.23-.26,8.33-.26,4.28,0,7.73.22,10.36.66,2.63.44,4.65,1.35,6.08,2.72,1.43,1.38,2.37,3.35,2.84,5.92.47,2.58.7,6,.7,10.27h0Zm-12.76-.37c0-3.04-.06-5.4-.18-7.07-.12-1.67-.43-2.88-.92-3.64-.49-.76-1.25-1.2-2.29-1.33-1.03-.12-2.43-.18-4.2-.18-1.01,0-2.02.02-3.02.07-.88.05-1.65.1-2.29.15-.74.05-1.38.1-1.92.15v23.92c.54.05,1.18.1,1.92.15.64.05,1.4.07,2.29.07h3.02c1.87,0,3.32-.06,4.35-.19,1.03-.12,1.78-.55,2.25-1.29.47-.74.75-1.88.85-3.46.1-1.57.15-3.8.15-6.69v-.66h0Z"/>
    <path class="cls-2" d="m198.42,52.69c-1.57.34-3.37.61-5.38.81-1.72.24-3.8.44-6.23.59-2.43.15-5.2.22-8.29.22-4.57,0-8.19-.22-10.84-.66-2.65-.44-4.67-1.33-6.04-2.69-1.38-1.35-2.25-3.26-2.62-5.74-.37-2.48-.55-5.78-.55-9.9s.23-7.69.7-10.27c.47-2.57,1.41-4.55,2.84-5.92,1.42-1.37,3.45-2.28,6.08-2.72,2.63-.44,6.11-.66,10.43-.66,1.18,0,2.22.02,3.13.07.91.05,1.71.1,2.4.15.79.05,1.48.1,2.07.15V0h12.31v52.69h0Zm-12.31-29.65c-.64-.06-1.28-.11-1.92-.15-.77-.05-1.55-.09-2.32-.11-1.02-.03-2.04-.04-3.06-.04-1.77,0-3.17.06-4.2.18-1.03.12-1.81.57-2.32,1.33-.52.76-.84,1.98-.96,3.64-.12,1.67-.18,4.02-.18,7.06v.66c0,2.9.05,5.13.15,6.7.1,1.57.39,2.72.88,3.46.49.74,1.25,1.17,2.29,1.29,1.03.12,2.48.19,4.35.19,1.13,0,2.15-.01,3.06-.04.78-.02,1.55-.05,2.32-.11.74-.05,1.38-.12,1.92-.22v-23.84Zm20.94-12.66V0h12.31v10.38h-12.31Zm0,42.97V16.63h12.31v36.72s-12.31,0-12.31,0Zm60.83-18.03c0,4.12-.18,7.42-.55,9.9-.37,2.48-1.23,4.39-2.58,5.74-1.35,1.35-3.36,2.24-6.01,2.69-2.65.44-6.27.66-10.84.66-2.36,0-4.2-.07-5.53-.22-.69-.04-1.38-.11-2.07-.22v16.19h-12.31V17.29c1.52-.3,3.29-.54,5.31-.74,2.08-.23,4.17-.41,6.27-.55,2.46-.17,5.23-.26,8.33-.26,4.28,0,7.73.22,10.36.66,2.63.44,4.66,1.35,6.08,2.72,1.43,1.38,2.37,3.35,2.84,5.92.47,2.58.7,6,.7,10.27h0Zm-12.76-.37c0-3.04-.06-5.4-.18-7.07-.12-1.67-.43-2.88-.92-3.64-.49-.76-1.25-1.2-2.29-1.33-1.03-.12-2.43-.18-4.2-.18-1.13,0-2.14.03-3.02.07-.89.05-1.65.1-2.29.15-.64.04-1.28.09-1.92.15v23.92c.54.05,1.18.1,1.92.15.64.05,1.4.07,2.29.07h3.02c1.87,0,3.32-.06,4.35-.19,1.03-.12,1.78-.55,2.25-1.29.47-.74.75-1.88.85-3.46.1-1.57.15-3.8.15-6.69v-.66s0,0,0,0Zm20.57,18.4v-11.77h12.31v11.77h-12.31Z"/>
  </g>
</svg>