<?xml version="1.0" encoding="UTF-8"?>
<svg id="Layer_2" data-name="Layer 2" xmlns="http://www.w3.org/2000/svg" viewBox="0 0 120 140">
  <defs>
    <style>
      .cls-1, .cls-2 {
        fill: none;
      }

      .cls-2 {
        stroke: #afafaf;
        stroke-linecap: round;
        stroke-linejoin: round;
        stroke-width: .5px;
      }
    </style>
  </defs>
  <g id="Layer_2-2" data-name="Layer 2">
    <rect class="cls-1" width="120" height="140"/>
    <g>
      <g>
        <path id="path26-5" class="cls-2" d="M65.83,114.82v21.15c0,.66.54,1.2,1.2,1.2s1.2-.54,1.2-1.2v-21.15h-2.39"/>
        <path id="path28-5" class="cls-2" d="M65.83,114.82v21.15c0,.66.54,1.2,1.2,1.2s1.2-.54,1.2-1.2v-21.15h-2.4Z"/>
        <path id="path30-5" class="cls-2" d="M54.18,114.82v21.15c0,.66-.54,1.2-1.2,1.2s-1.2-.54-1.2-1.2v-21.15h2.39"/>
        <path id="path32-5" class="cls-2" d="M54.18,114.82v21.15c0,.66-.54,1.2-1.2,1.2s-1.2-.54-1.2-1.2v-21.15h2.4Z"/>
      </g>
      <path class="cls-2" d="M61.66,46.55c-.14-.9-.83-1.59-1.66-1.59s-1.52.69-1.66,1.59c-7.29.83-12.95,7-12.95,14.51v30.2h29.23v-30.2c0-7.51-5.66-13.69-12.95-14.51h0Z"/>
      <rect class="cls-2" x="47.67" y="91.26" width="24.67" height="23.55"/>
    </g>
  </g>
</svg>