<?xml version="1.0" encoding="UTF-8"?>
<svg id="Layer_2" data-name="Layer 2" xmlns="http://www.w3.org/2000/svg" viewBox="0 0 120 140">
  <defs>
    <style>
      .cls-1, .cls-2 {
        fill: none;
      }

      .cls-2 {
        stroke: #afafaf;
        stroke-linecap: round;
        stroke-linejoin: round;
        stroke-width: .5px;
      }
    </style>
  </defs>
  <g id="Layer_2-2" data-name="Layer 2">
    <rect class="cls-1" width="120" height="140"/>
    <g>
      <path id="path18-7" class="cls-2" d="M64.17,134.97l-1.8,2.2h-4.73l-1.8-2.2h8.33"/>
      <path id="path20-6" class="cls-2" d="M64.17,134.97l-1.8,2.2h-4.73l-1.8-2.2h8.33,0Z"/>
      <path id="path22-6" class="cls-2" d="M66.96,117.6v4.44l-.44,1.46.44,1.35-.44,1.47.44,1.24-.44,1.57.44,1.24-.44,1.58v1.35l-1.36,1.68h-10.33l-1.36-1.68v-1.35l-.45-1.58.45-1.24-.45-1.57.45-1.24-.45-1.47.45-1.35-.45-1.46v-4.44h13.94"/>
      <path id="path24-6" class="cls-2" d="M66.96,117.6v4.44l-.44,1.46.44,1.35-.44,1.47.44,1.24-.44,1.57.44,1.24-.44,1.58v1.35l-1.36,1.68h-10.33l-1.36-1.68v-1.35l-.45-1.58.45-1.24-.45-1.57.45-1.24-.45-1.47.45-1.35-.45-1.46v-4.44h13.94Z"/>
      <path id="path26-7" class="cls-2" d="M66.52,129.12l-13.5,1.24"/>
      <path id="path28-7" class="cls-2" d="M66.52,126.32l-13.5,1.24"/>
      <path id="path30-7" class="cls-2" d="M66.52,131.94l-10.28.81"/>
      <path id="path32-7" class="cls-2" d="M63.46,123.77l-10.43,1.08"/>
      <path id="path34-6" class="cls-2" d="M69.31,117.6h-18.61v-6.85h18.61v6.85"/>
      <path id="path36-6" class="cls-2" d="M69.31,117.6h-18.61v-6.85h18.61v6.85Z"/>
      <path id="path38-4" class="cls-2" d="M78.06,82.26h-36.1"/>
      <path id="path40-4" class="cls-2" d="M78.06,82.26h-36.1"/>
      <path class="cls-2" d="M49.81,48.46c1.13-3.5,10.17-20.16,8-27.3l-1.09-5.04c-1.11-.34-1.92-1.36-1.92-2.58,0-1.5,1.21-2.71,2.71-2.71s2.71,1.21,2.71,2.71c0,.42-.1.81-.27,1.17.7,1.27,1.61,2.9,1.61,2.9,0,0,3.27,6.95,3.3,11.95.04,6.03,3.15,14.5,4.86,18.05,4.41,9.03,8.32,22.01,8.32,34.67,0,14.03-5.61,26.22-9.44,28.49h-17.22c-3.83-2.27-9.44-14.46-9.44-28.49,0-12.23,3.65-24.81,7.87-33.81h0Z"/>
    </g>
  </g>
</svg>