<?xml version="1.0" encoding="UTF-8"?>
<svg id="Layer_2" data-name="Layer 2" xmlns="http://www.w3.org/2000/svg" xmlns:xlink="http://www.w3.org/1999/xlink" viewBox="0 0 131 151.76">
  <defs>
    <style>
      .cls-1, .cls-2 {
        fill: none;
      }

      .cls-2 {
        stroke: #afafaf;
        stroke-linecap: round;
        stroke-linejoin: round;
        stroke-width: .5px;
      }

      .cls-3 {
        fill: url(#linear-gradient);
        filter: url(#drop-shadow-1);
      }
    </style>
    <linearGradient id="linear-gradient" x1="36.95" y1="35.61" x2="36.95" y2="53.1" gradientUnits="userSpaceOnUse">
      <stop offset="0" stop-color="#fff"/>
      <stop offset="1" stop-color="#e5e5e5"/>
    </linearGradient>
    <filter id="drop-shadow-1" x="0" y="0" width="131" height="79" filterUnits="userSpaceOnUse">
      <feOffset dx="0" dy="-5"/>
      <feGaussianBlur result="blur" stdDeviation="10"/>
      <feFlood flood-color="#e5e5e5" flood-opacity=".75"/>
      <feComposite in2="blur" operator="in"/>
      <feComposite in="SourceGraphic"/>
    </filter>
  </defs>
  <g id="Layer_2-2" data-name="Layer 2">
    <rect class="cls-1" x="5.87" y="11.76" width="120" height="140"/>
    <g>
      <g id="g10">
        <g id="g12">
          <path id="path14-3" class="cls-2" d="M71.69,144.41l-2.52,4.34h-6.62l-2.52-4.34h11.67"/>
          <path id="path16-3" class="cls-2" d="M71.69,144.41l-2.52,4.34h-6.62l-2.52-4.34h11.67-.01Z"/>
          <path id="path18-3" class="cls-2" d="M75.62,120.08v6.22l-.62,2.05.62,1.9-.62,2.06.62,1.73-.62,2.2.62,1.73-.62,2.22v1.89l-1.91,2.35h-14.46l-1.9-2.35v-1.89l-.63-2.22.63-1.73-.63-2.2.63-1.73-.63-2.06.63-1.9-.63-2.05v-6.22h19.52"/>
          <path id="path20-2" class="cls-2" d="M75.62,120.08v6.22l-.62,2.05.62,1.9-.62,2.06.62,1.73-.62,2.2.62,1.73-.62,2.22v1.89l-1.91,2.35h-14.46l-1.9-2.35v-1.89l-.63-2.22.63-1.73-.63-2.2.63-1.73-.63-2.06.63-1.9-.63-2.05v-6.22h19.52Z"/>
          <path id="path22-3" class="cls-2" d="M75,136.22l-18.9,1.73"/>
          <path id="path24-3" class="cls-2" d="M75,132.3l-18.9,1.73"/>
          <path id="path26-3" class="cls-2" d="M75,140.17l-14.71,1.4"/>
          <path id="path28-3" class="cls-2" d="M70.76,128.85l-14.66,1.39"/>
          <path id="path30-3" class="cls-2" d="M78.89,120.08h-26.06v-9.59h26.06v9.59"/>
          <path id="path32-3" class="cls-2" d="M78.89,120.08h-26.06v-9.59h26.06v9.59Z"/>
          <path id="path34-3" class="cls-2" d="M31.14,53.35c-.43,0-.17,2.48-.17,2.48,0,4.86,9.91,16.62,16.87,20.42,2.27,1.24,2.07,5.58,2.07,5.58,0,0,1.24,22.49,1.36,24.72.11,2.22,1.56,3.94,1.56,3.94h26.06s1.45-1.72,1.56-3.94,1.36-24.72,1.36-24.72c0,0-.2-4.34,2.07-5.58,6.96-3.8,16.87-15.56,16.87-20.42,0,0,.26-2.48-.17-2.48H31.12"/>
          <path id="path36-3" class="cls-2" d="M31.14,53.35c-.43,0-.17,2.48-.17,2.48,0,4.86,9.91,16.62,16.87,20.42,2.27,1.24,2.07,5.58,2.07,5.58,0,0,1.24,22.49,1.36,24.72.11,2.22,1.56,3.94,1.56,3.94h26.06s1.45-1.72,1.56-3.94,1.36-24.72,1.36-24.72c0,0-.2-4.34,2.07-5.58,6.96-3.8,16.87-15.56,16.87-20.42,0,0,.26-2.48-.17-2.48H31.12h.02Z"/>
          <path id="path38-2" class="cls-2" d="M31.14,53.35s-.63-.76-.33-2.12c.3-1.36,2.86-15.87,34.79-15.87h.53c31.94,0,34.5,14.51,34.79,15.87.3,1.35-.33,2.12-.33,2.12H31.13"/>
          <path id="path40-2" class="cls-2" d="M31.14,53.35s-.63-.76-.33-2.12c.3-1.36,2.86-15.87,34.79-15.87h.53c31.94,0,34.5,14.51,34.79,15.87.3,1.35-.33,2.12-.33,2.12H31.13h0Z"/>
        </g>
      </g>
      <path class="cls-3" d="M31.06,51.28l.02-.08c.78-3.66,5.59-15.59,34.53-15.59h.53c29.02,0,33.77,11.94,34.53,15.6v.07c.23.96-.07,1.59-.2,1.82H31.27c-.14-.22-.43-.85-.22-1.82Z"/>
    </g>
  </g>
</svg>