<?xml version="1.0" encoding="UTF-8"?>
<svg id="Layer_2" data-name="Layer 2" xmlns="http://www.w3.org/2000/svg" viewBox="0 0 120 140">
  <defs>
    <style>
      .cls-1, .cls-2 {
        fill: none;
      }

      .cls-2 {
        stroke: #afafaf;
        stroke-linecap: round;
        stroke-linejoin: round;
        stroke-width: .5px;
      }
    </style>
  </defs>
  <g id="Layer_2-2" data-name="Layer 2">
    <rect class="cls-1" width="120" height="140"/>
    <g id="g10">
      <g id="g12">
        <path id="path14-3" class="cls-2" d="M65.82,132.65l-2.52,4.34h-6.62l-2.52-4.34h11.67"/>
        <path id="path16-3" class="cls-2" d="M65.82,132.65l-2.52,4.34h-6.62l-2.52-4.34h11.67-.01Z"/>
        <path id="path18-3" class="cls-2" d="M69.75,108.32v6.22l-.62,2.05.62,1.9-.62,2.06.62,1.73-.62,2.2.62,1.73-.62,2.22v1.89l-1.91,2.35h-14.46l-1.9-2.35v-1.89l-.63-2.22.63-1.73-.63-2.2.63-1.73-.63-2.06.63-1.9-.63-2.05v-6.22h19.52"/>
        <path id="path20-2" class="cls-2" d="M69.75,108.32v6.22l-.62,2.05.62,1.9-.62,2.06.62,1.73-.62,2.2.62,1.73-.62,2.22v1.89l-1.91,2.35h-14.46l-1.9-2.35v-1.89l-.63-2.22.63-1.73-.63-2.2.63-1.73-.63-2.06.63-1.9-.63-2.05v-6.22h19.52Z"/>
        <path id="path22-3" class="cls-2" d="M69.13,124.46l-18.9,1.73"/>
        <path id="path24-3" class="cls-2" d="M69.13,120.54l-18.9,1.73"/>
        <path id="path26-3" class="cls-2" d="M69.13,128.41l-14.71,1.4"/>
        <path id="path28-3" class="cls-2" d="M64.89,117.09l-14.66,1.39"/>
        <path id="path30-3" class="cls-2" d="M73.02,108.32h-26.06v-9.59h26.06v9.59"/>
        <path id="path32-3" class="cls-2" d="M73.02,108.32h-26.06v-9.59h26.06v9.59Z"/>
        <path id="path34-3" class="cls-2" d="M25.27,41.59c-.43,0-.17,2.48-.17,2.48,0,4.86,9.91,16.62,16.87,20.42,2.27,1.24,2.07,5.58,2.07,5.58,0,0,1.24,22.49,1.36,24.72.11,2.22,1.56,3.94,1.56,3.94h26.06s1.45-1.72,1.56-3.94,1.36-24.72,1.36-24.72c0,0-.2-4.34,2.07-5.58,6.96-3.8,16.87-15.56,16.87-20.42,0,0,.26-2.48-.17-2.48H25.25"/>
        <path id="path36-3" class="cls-2" d="M25.27,41.59c-.43,0-.17,2.48-.17,2.48,0,4.86,9.91,16.62,16.87,20.42,2.27,1.24,2.07,5.58,2.07,5.58,0,0,1.24,22.49,1.36,24.72.11,2.22,1.56,3.94,1.56,3.94h26.06s1.45-1.72,1.56-3.94,1.36-24.72,1.36-24.72c0,0-.2-4.34,2.07-5.58,6.96-3.8,16.87-15.56,16.87-20.42,0,0,.26-2.48-.17-2.48H25.25h.02Z"/>
        <path id="path38-2" class="cls-2" d="M25.27,41.59s-.63-.76-.33-2.12c.3-1.36,2.86-15.87,34.79-15.87h.53c31.94,0,34.5,14.51,34.79,15.87.3,1.35-.33,2.12-.33,2.12H25.27"/>
        <path id="path40-2" class="cls-2" d="M25.27,41.59s-.63-.76-.33-2.12c.3-1.36,2.86-15.87,34.79-15.87h.53c31.94,0,34.5,14.51,34.79,15.87.3,1.35-.33,2.12-.33,2.12H25.27h0Z"/>
      </g>
    </g>
  </g>
</svg>