<?xml version="1.0" encoding="UTF-8"?>
<svg id="Layer_2" data-name="Layer 2" xmlns="http://www.w3.org/2000/svg" viewBox="0 0 120 140">
  <defs>
    <style>
      .cls-1, .cls-2 {
        fill: none;
      }

      .cls-2 {
        stroke: #afafaf;
        stroke-linecap: round;
        stroke-linejoin: round;
        stroke-width: .5px;
      }
    </style>
  </defs>
  <g id="Layer_2-2" data-name="Layer 2">
    <g>
      <path id="path14-5" class="cls-2" d="M37.81,88.59c.34,3.32,2.97,26.7,3.16,28.88s.99,3.44,3.17,3.44h31.73c2.18,0,2.98-1.26,3.17-3.44s2.82-25.56,3.16-28.88c.26-2.46,1.09-3.34,2.98-5,8.82-7.76,15.68-18.95,20.58-34.13H14.26c4.9,15.18,11.76,26.37,20.58,34.13,1.88,1.66,2.72,2.54,2.98,5"/>
      <path id="path16-5" class="cls-2" d="M37.81,88.59c.34,3.32,2.97,26.7,3.16,28.88s.99,3.44,3.17,3.44h31.73c2.18,0,2.98-1.26,3.17-3.44s2.82-25.56,3.16-28.88c.26-2.46,1.09-3.34,2.98-5,8.82-7.76,15.68-18.95,20.58-34.13H14.26c4.9,15.18,11.76,26.37,20.58,34.13,1.88,1.66,2.72,2.54,2.98,5h0Z"/>
      <path id="path18-5" class="cls-2" d="M108.37,49.46H11.65v-4.28h96.72v4.28"/>
      <path id="path20-4" class="cls-2" d="M108.37,49.46H11.65v-4.28h96.72v4.28h0Z"/>
      <path id="path94" class="cls-2" d="M53.3,137.17h0c-.85,0-1.55-.69-1.55-1.55v-14.73h3.09v14.73c0,.85-.69,1.55-1.55,1.55h0Z"/>
      <path id="path94-2" class="cls-2" d="M66.71,137.17h0c-.85,0-1.55-.69-1.55-1.55v-14.73h3.09v14.73c0,.85-.69,1.55-1.55,1.55h0Z"/>
      <path id="path100" class="cls-2" d="M85.17,83.59c-2.95,1.56-6.66,3.05-10.59,4.22-4.87,1.44-10.07,2.4-14.58,2.4s-9.7-.95-14.56-2.39c-3.93-1.17-7.65-2.65-10.61-4.22"/>
    </g>
    <rect class="cls-1" width="120" height="140"/>
  </g>
</svg>