<?xml version="1.0" encoding="UTF-8"?>
<svg id="_Слой_2" data-name="Слой 2" xmlns="http://www.w3.org/2000/svg" viewBox="0 0 387.34 29.46">
  <defs>
    <style>
      .cls-1 {
        fill: #fff;
        stroke-width: 0px;
      }
    </style>
  </defs>
  <g id="Layer_1" data-name="Layer 1">
    <g>
      <rect class="cls-1" x="58.89" y="15.03" width="20.44" height="5.56" transform="translate(138.22 35.63) rotate(180)"/>
      <path class="cls-1" d="m384.14.12h-37.25c-1.77,0-3.2,1.43-3.2,3.2s1.43,3.2,3.2,3.2h15.43v19.57c0,1.77,1.43,3.2,3.2,3.2s3.2-1.43,3.2-3.2V6.52h15.43c1.77,0,3.2-1.43,3.2-3.2s-1.43-3.2-3.2-3.2Z"/>
      <path class="cls-1" d="m235.4,22.91v-.03h-28.42c-4.52,0-8.18-3.66-8.18-8.18h0c0-4.52,3.66-8.18,8.18-8.18h28.42v-.02c1.67-.1,3-1.48,3-3.18s-1.33-3.07-3-3.18h0s-.04,0-.04,0c-.05,0-.11-.02-.16-.02h-13.08v.02h-14.59c-8.05,0-14.57,6.52-14.57,14.57h0c0,8.05,6.52,14.57,14.57,14.57h14.59v.02h13.08c.06,0,.11-.01.17-.02h.03c1.67-.11,3-1.48,3-3.18s-1.33-3.07-3-3.18Z"/>
      <path class="cls-1" d="m88.33,24.54l-13.71-21.31c-2.78-4.32-9.09-4.32-11.87,0l-13.71,21.31c-.95,1.49-.5,3.47.99,4.41s3.47.5,4.41-.99l13.04-20.23c.56-.87,1.83-.87,2.39,0l13.04,20.23c.95,1.49,2.92,1.93,4.41.99,1.49-.95,1.93-2.92.99-4.41Z"/>
      <path class="cls-1" d="m134.97.13c-1.77,0-3.2,1.43-3.2,3.2v8.21h-30.95V3.33c0-1.77-1.43-3.2-3.2-3.2s-3.2,1.43-3.2,3.2v22.81c0,1.77,1.43,3.2,3.2,3.2s3.2-1.43,3.2-3.2v-8.21h30.95v8.21c0,1.77,1.43,3.2,3.2,3.2s3.2-1.43,3.2-3.2V3.33c0-1.77-1.43-3.2-3.2-3.2Z"/>
      <path class="cls-1" d="m40.55.13c-1.77,0-3.2,1.43-3.2,3.2v8.21H6.4V3.33C6.4,1.56,4.96.13,3.2.13S0,1.56,0,3.33v22.81c0,1.77,1.43,3.2,3.2,3.2s3.2-1.43,3.2-3.2v-8.21h30.95v8.21c0,1.77,1.43,3.2,3.2,3.2s3.2-1.43,3.2-3.2V3.33c0-1.77-1.43-3.2-3.2-3.2Z"/>
      <path class="cls-1" d="m174.22.14h-16.22c-8.05,0-14.57,6.52-14.57,14.57h0c0,8.05,6.52,14.57,14.57,14.57h16.22c8.05,0,14.57-6.52,14.57-14.57h0c0-8.05-6.52-14.57-14.57-14.57Zm8.73,14.57c0,4.52-3.66,8.18-8.18,8.18h-11.26s-6.05,0-6.05,0c-4.52,0-8.18-3.66-8.18-8.18h0c0-4.52,3.66-8.18,8.18-8.18h11.26s6.05,0,6.05,0c4.52,0,8.18,3.66,8.18,8.18h0Z"/>
      <path class="cls-1" d="m285.9,14.77c.53-.75.94-1.61,1.27-2.57.29-.97.46-2,.46-3.12,0-1.25-.19-2.42-.6-3.51-.38-1.09-.92-2.04-1.61-2.83-.69-.81-1.48-1.44-2.41-1.92-.91-.47-1.87-.7-2.92-.7h-33.36s0,0,0,0h-.13c-1.41,0-2.55,1.14-2.55,2.55v4.65h0v18.75s0,.04,0,.06v.6c0,1.41,1.14,2.55,2.55,2.55h.11s0,0,.01,0h33.36c1.04,0,2.01-.24,2.92-.7.92-.46,1.72-1.1,2.41-1.9.69-.8,1.22-1.74,1.61-2.8.41-1.07.6-2.23.6-3.49,0-1.06-.17-2.08-.46-3.04-.33-.97-.75-1.82-1.27-2.58Zm-4.09,5.43c0,1.5-1.22,2.72-2.72,2.72h-29.15v-5.65h29.15c1.5,0,2.72,1.22,2.72,2.72v.21Zm0-10.75c0,1.5-1.22,2.72-2.72,2.72h-29.15v-5.65h29.15c1.5,0,2.72,1.22,2.72,2.72v.21Z"/>
      <path class="cls-1" d="m334.82,6.55c1.77,0,3.2-1.43,3.2-3.2v-.02c0-1.77-1.43-3.2-3.2-3.2h-4.66s-31.27,0-31.27,0h-3.16c-1.41,0-2.55,1.14-2.55,2.55v24.07c0,1.41,1.15,2.55,2.55,2.55h39.09c1.77,0,3.2-1.43,3.2-3.2v-.02c0-1.77-1.43-3.2-3.2-3.2h-4.66s-28.84,0-28.84,0c-.53,0-.94-.16-1.27-.5-.31-.33-.45-.72-.45-1.17v-3.77h20.36s9.65,0,9.65,0c1.45,0,2.63-1.18,2.63-2.63h0c0-1.47-1.18-2.64-2.63-2.64h-3.45s-26.67,0-26.67,0h0s0,0,0,0v-5.6h.07s22.17,0,22.17,0h0s13.08,0,13.08,0Z"/>
    </g>
  </g>
</svg>
